<?xml version="1.0" encoding="iso-8859-1"?>
<!-- Generator: Adobe Illustrator 19.0.0, SVG Export Plug-In . SVG Version: 6.00 Build 0)  -->
<svg version="1.1" id="Capa_1" xmlns="http://www.w3.org/2000/svg" xmlns:xlink="http://www.w3.org/1999/xlink" x="0px" y="0px"
	 viewBox="0 0 511.921 511.921" style="enable-background:new 0 0 511.921 511.921;" xml:space="preserve">
<g transform="translate(-1)">
	<g>
		<g>
			<path d="M165.384,267.997c-4.563-1.178-9.218,1.566-10.396,6.129s1.566,9.218,6.129,10.396
				c33.049,8.588,58.84,34.427,67.367,67.492c0.967,3.774,4.367,6.415,8.263,6.417l0-0.001c2.637,0.001,5.126-1.217,6.744-3.299
				c1.617-2.083,2.181-4.796,1.527-7.35C234.945,308.69,204.455,278.143,165.384,267.997z"/>
			<path d="M198.285,234.618c-2.952-0.762-6.086,0.108-8.222,2.284c-2.136,2.175-2.949,5.325-2.133,8.263
				c0.816,2.938,3.137,5.217,6.089,5.979c33.049,8.588,58.84,34.427,67.367,67.492c0.967,3.774,4.367,6.414,8.263,6.417l0,0
				c2.637,0.001,5.126-1.218,6.743-3.3c1.617-2.083,2.181-4.796,1.528-7.35C267.846,275.311,237.356,244.764,198.285,234.618z"/>
			<path d="M231.187,201.238c-2.952-0.762-6.086,0.108-8.222,2.284c-2.136,2.175-2.949,5.325-2.133,8.262
				c0.816,2.938,3.137,5.217,6.089,5.979c33.049,8.588,58.84,34.427,67.366,67.492c0.967,3.774,4.366,6.415,8.263,6.418h0
				c2.637,0,5.125-1.219,6.742-3.301c1.617-2.083,2.181-4.795,1.529-7.35C300.748,241.931,270.258,211.384,231.187,201.238z"/>
			<path d="M264.087,167.858c-2.952-0.762-6.086,0.108-8.222,2.284c-2.136,2.175-2.949,5.325-2.133,8.262s3.137,5.217,6.089,5.979
				c33.049,8.588,58.84,34.427,67.367,67.492c0.967,3.774,4.366,6.415,8.263,6.418l0,0c2.636-0.001,5.125-1.22,6.742-3.302
				c1.617-2.082,2.181-4.795,1.529-7.35C333.648,208.551,303.159,178.004,264.087,167.858z"/>
			<path d="M296.989,134.479c-2.952-0.762-6.086,0.108-8.222,2.284c-2.136,2.175-2.949,5.325-2.133,8.262
				c0.816,2.938,3.137,5.217,6.089,5.979c33.049,8.588,58.84,34.426,67.367,67.492c0.967,3.774,4.366,6.415,8.263,6.419l0,0
				c2.636-0.002,5.124-1.221,6.741-3.303s2.181-4.794,1.53-7.349C366.55,175.172,336.06,144.625,296.989,134.479z"/>
			<path d="M329.89,101.099c-2.952-0.762-6.086,0.108-8.222,2.284c-2.136,2.175-2.949,5.325-2.133,8.262
				c0.816,2.938,3.137,5.217,6.089,5.979c33.049,8.588,58.84,34.426,67.367,67.492c0.967,3.774,4.366,6.416,8.263,6.42l0,0
				c2.636-0.003,5.123-1.222,6.74-3.304c1.617-2.082,2.182-4.794,1.531-7.349C399.451,141.792,368.961,111.245,329.89,101.099z"/>
			<path d="M362.791,67.72c-2.952-0.762-6.086,0.108-8.222,2.284c-2.136,2.175-2.949,5.325-2.133,8.262s3.137,5.217,6.089,5.979
				c33.049,8.588,58.84,34.426,67.367,67.491c0.967,3.775,4.366,6.416,8.262,6.42l0,0c2.636-0.003,5.123-1.223,6.739-3.305
				s2.182-4.794,1.532-7.348C432.352,108.412,401.862,77.865,362.791,67.72z"/>
			<path d="M475.325,114.123c-10.072-39.09-40.562-69.638-79.633-79.783c-2.952-0.762-6.086,0.108-8.222,2.284
				c-2.136,2.175-2.949,5.325-2.133,8.262s3.137,5.217,6.089,5.979c33.049,8.588,58.84,34.427,67.367,67.492
				c0.967,3.775,4.366,6.416,8.263,6.421l0,0c2.636-0.004,5.122-1.224,6.739-3.306C475.409,119.389,475.975,116.677,475.325,114.123
				z"/>
			<path d="M480.429,32.531c-43.281-43.281-113.44-43.328-156.779-0.104L33.517,322.56C1.774,354.273-7.728,401.991,9.448,443.444
				c17.175,41.453,57.641,68.468,102.511,68.437c29.421,0.052,57.65-11.621,78.442-32.438L480.534,189.31
				C523.758,145.971,523.711,75.813,480.429,32.531z M147.881,487.725c-35.076,14.529-75.451,6.498-102.297-20.348
				c-17.672-17.567-27.609-41.457-27.609-66.375c0-24.918,9.937-48.808,27.609-66.375v0c26.846-26.846,67.221-34.877,102.297-20.348
				s57.947,48.757,57.947,86.723S182.957,473.196,147.881,487.725z M468.467,177.244L219.942,425.769
				c8.625-37.196-2.542-76.21-29.541-103.209c-26.999-26.999-66.013-38.166-103.209-29.541L335.717,44.493
				c36.658-36.658,96.092-36.658,132.75,0C505.125,81.151,505.125,140.586,468.467,177.244z"/>
			<path d="M82.569,330.048c-28.698,11.887-47.41,39.891-47.41,70.954c0.049,42.395,34.405,76.751,76.8,76.8
				c31.063,0,59.067-18.712,70.954-47.41c11.887-28.698,5.317-61.731-16.648-83.696C144.3,324.732,111.267,318.161,82.569,330.048z
				 M111.959,460.735c-32.99,0-59.733-26.744-59.733-59.733c0.037-32.974,26.759-59.696,59.733-59.733
				c32.99,0,59.733,26.744,59.733,59.733S144.949,460.735,111.959,460.735z"/>
		</g>
	</g>
</g>
<g>
</g>
<g>
</g>
<g>
</g>
<g>
</g>
<g>
</g>
<g>
</g>
<g>
</g>
<g>
</g>
<g>
</g>
<g>
</g>
<g>
</g>
<g>
</g>
<g>
</g>
<g>
</g>
<g>
</g>
</svg>
