<svg id="Capa_1" enable-background="new 0 0 512 512" height="512" viewBox="0 0 512 512" width="512" xmlns="http://www.w3.org/2000/svg"><g><path d="m256 122c-8.284 0-15 6.716-15 15s6.716 15 15 15h120c8.284 0 15-6.716 15-15s-6.716-15-15-15z"/><path d="m376 182h-120c-8.284 0-15 6.716-15 15s6.716 15 15 15h120c8.284 0 15-6.716 15-15s-6.716-15-15-15z"/><path d="m376 242h-120c-8.284 0-15 6.716-15 15s6.716 15 15 15h120c8.284 0 15-6.716 15-15s-6.716-15-15-15z"/><path d="m376 302h-120c-8.284 0-15 6.716-15 15s6.716 15 15 15h120c8.284 0 15-6.716 15-15s-6.716-15-15-15z"/><path d="m376 362h-240c-8.284 0-15 6.716-15 15s6.716 15 15 15h240c8.284 0 15-6.716 15-15s-6.716-15-15-15z"/><path d="m296 422h-160c-8.284 0-15 6.716-15 15s6.716 15 15 15h160c8.284 0 15-6.716 15-15s-6.716-15-15-15z"/><path d="m436 32h-95v-17c0-8.284-6.716-15-15-15h-140c-8.284 0-15 6.716-15 15v17h-95c-8.284 0-15 6.716-15 15v450c0 8.284 6.716 15 15 15h360c8.284 0 15-6.716 15-15v-450c0-8.284-6.716-15-15-15zm-235-2h110v32h-110zm220 452h-330v-420h80v15c0 8.284 6.716 15 15 15h140c8.284 0 15-6.716 15-15v-15h80z"/><path d="m136 212h60c8.284 0 15-6.716 15-15v-60c0-8.284-6.716-15-15-15h-60c-8.284 0-15 6.716-15 15v60c0 8.284 6.716 15 15 15zm15-60h30v30h-30z"/><path d="m136 332h60c8.284 0 15-6.716 15-15v-60c0-8.284-6.716-15-15-15h-60c-8.284 0-15 6.716-15 15v60c0 8.284 6.716 15 15 15zm15-60h30v30h-30z"/></g></svg>