<?xml version="1.0" encoding="iso-8859-1"?>
<!-- Generator: Adobe Illustrator 19.0.0, SVG Export Plug-In . SVG Version: 6.00 Build 0)  -->
<svg version="1.1" id="Capa_1" xmlns="http://www.w3.org/2000/svg" xmlns:xlink="http://www.w3.org/1999/xlink" x="0px" y="0px"
	 viewBox="0 0 512 512" style="enable-background:new 0 0 512 512;" xml:space="preserve">
<path style="fill:#303C42;" d="M480,234.667h-74.667V117.333c0-2.833-1.125-5.542-3.125-7.542L295.542,3.125
	c-2-2-4.708-3.125-7.542-3.125H64C40.479,0,21.333,19.135,21.333,42.667v426.667C21.333,492.865,40.479,512,64,512h298.667
	c23.521,0,42.667-19.135,42.667-42.667v-42.667H480c5.896,0,10.667-4.771,10.667-10.667V245.333
	C490.667,239.438,485.896,234.667,480,234.667z"/>
<path style="fill:#E6E6E6;" d="M298.667,36.417l70.25,70.25H320c-11.771,0-21.333-9.573-21.333-21.333V36.417z"/>
<path style="fill:#FFFFFF;" d="M384,469.333c0,11.76-9.563,21.333-21.333,21.333H64c-11.771,0-21.333-9.573-21.333-21.333V42.667
	c0-11.76,9.563-21.333,21.333-21.333h213.333v64C277.333,108.865,296.479,128,320,128h64v106.667H138.667
	c-5.896,0-10.667,4.771-10.667,10.667V416c0,5.896,4.771,10.667,10.667,10.667H384V469.333z"/>
<rect x="149.333" y="256" style="fill:#4BA0EA;" width="320" height="149.333"/>
<linearGradient id="SVGID_1_" gradientUnits="userSpaceOnUse" x1="-32.0002" y1="641.8779" x2="-27.7514" y2="637.6291" gradientTransform="matrix(21.3333 0 0 -21.3333 996.3334 13791.667)">
	<stop  offset="0" style="stop-color:#000000;stop-opacity:0.1"/>
	<stop  offset="1" style="stop-color:#000000;stop-opacity:0"/>
</linearGradient>
<path style="fill:url(#SVGID_1_);" d="M320,128c-10.005,0-19.098-3.605-26.383-9.397l-0.259-0.027L384,209.217V128H320z"/>
<linearGradient id="SVGID_2_" gradientUnits="userSpaceOnUse" x1="-31.8148" y1="625.736" x2="-46.5178" y2="622.6119" gradientTransform="matrix(21.3333 0 0 -21.3333 996.3334 13791.667)">
	<stop  offset="0" style="stop-color:#000000;stop-opacity:0.1"/>
	<stop  offset="1" style="stop-color:#000000;stop-opacity:0"/>
</linearGradient>
<path style="fill:url(#SVGID_2_);" d="M131.833,424.023l66.642,66.643h164.191c11.771,0,21.333-9.573,21.333-21.333v-42.667H138.667
	C136.027,426.667,133.695,425.608,131.833,424.023z"/>
<g>
	<path style="fill:#303C42;" d="M224,362.667h-21.333c-5.896,0-10.667,4.771-10.667,10.667S196.771,384,202.667,384H224
		c17.646,0,32-14.354,32-32c0-17.646-14.354-32-32-32c-5.875,0-10.667-4.781-10.667-10.667s4.792-10.667,10.667-10.667h21.333
		c5.896,0,10.667-4.771,10.667-10.667c0-5.896-4.771-10.667-10.667-10.667H224c-17.646,0-32,14.354-32,32s14.354,32,32,32
		c5.875,0,10.667,4.781,10.667,10.667C234.667,357.885,229.875,362.667,224,362.667z"/>
	<path style="fill:#303C42;" d="M300.458,379.25c1.979,2.969,5.313,4.75,8.875,4.75s6.896-1.781,8.875-4.75l21.333-32
		c1.167-1.75,1.792-3.813,1.792-5.917V288c0-5.896-4.771-10.667-10.667-10.667c-5.896,0-10.667,4.771-10.667,10.667v50.104
		l-10.667,16l-10.667-16V288c0-5.896-4.771-10.667-10.667-10.667c-5.896,0-10.667,4.771-10.667,10.667v53.333
		c0,2.104,0.625,4.167,1.792,5.917L300.458,379.25z"/>
	<path style="fill:#303C42;" d="M394.667,384c17.646,0,32-14.354,32-32v-10.667c0-5.896-4.771-10.667-10.667-10.667h-10.667
		c-5.896,0-10.667,4.771-10.667,10.667S399.438,352,405.333,352c0,5.885-4.792,10.667-10.667,10.667S384,357.885,384,352v-42.667
		c0-5.885,4.792-10.667,10.667-10.667s10.667,4.781,10.667,10.667c0,5.896,4.771,10.667,10.667,10.667
		c5.896,0,10.667-4.771,10.667-10.667c0-17.646-14.354-32-32-32c-17.646,0-32,14.354-32,32V352
		C362.667,369.646,377.021,384,394.667,384z"/>
</g>
<linearGradient id="SVGID_3_" gradientUnits="userSpaceOnUse" x1="-48.4377" y1="639.0618" x2="-23.4514" y2="627.4131" gradientTransform="matrix(21.3333 0 0 -21.3333 996.3334 13791.667)">
	<stop  offset="0" style="stop-color:#FFFFFF;stop-opacity:0.2"/>
	<stop  offset="1" style="stop-color:#FFFFFF;stop-opacity:0"/>
</linearGradient>
<path style="fill:url(#SVGID_3_);" d="M480,234.667h-74.667V117.333c0-2.833-1.125-5.542-3.125-7.542L295.542,3.125
	c-2-2-4.708-3.125-7.542-3.125H64C40.479,0,21.333,19.135,21.333,42.667v426.667C21.333,492.865,40.479,512,64,512h298.667
	c23.521,0,42.667-19.135,42.667-42.667v-42.667H480c5.896,0,10.667-4.771,10.667-10.667V245.333
	C490.667,239.438,485.896,234.667,480,234.667z"/>
<g>
</g>
<g>
</g>
<g>
</g>
<g>
</g>
<g>
</g>
<g>
</g>
<g>
</g>
<g>
</g>
<g>
</g>
<g>
</g>
<g>
</g>
<g>
</g>
<g>
</g>
<g>
</g>
<g>
</g>
</svg>
